<?xml version="1.0" encoding="utf-8"?>
<!-- Generator: Adobe Illustrator 20.1.0, SVG Export Plug-In . SVG Version: 6.00 Build 0)  -->
<svg version="1.1" id="Capa_1" xmlns="http://www.w3.org/2000/svg" xmlns:xlink="http://www.w3.org/1999/xlink" x="0px" y="0px"
	 viewBox="0 0 150 26" style="enable-background:new 0 0 150 26;" xml:space="preserve">
<style type="text/css">
	.st0{fill:#1D1D1B;}
	.st1{fill-rule:evenodd;clip-rule:evenodd;fill:#1D1D1B;}
</style>
<g>
	<path class="st0" d="M62.2,10.3c-0.1,0.4,0.3,0.9,0.7,0.8c0.8-0.1,0.7-1.3-0.2-1.3C62.5,9.9,62.3,10,62.2,10.3 M122.7,10.6
		c-0.1,0.4,0.3,0.9,0.7,0.8c0.9-0.1,0.8-1.4-0.1-1.3C122.9,10.2,122.8,10.3,122.7,10.6 M115.1,13.7c0-0.5-0.1-1.6,0.1-1.9
		c0.3-0.4,1.4-0.2,2-0.3c0.1,0,0.3,0,0.4,0c0.7,0,0.7,0.5,0.7,1.2c0,0.3,0,0.6,0,0.9c0,0.2,0,0.4,0,0.7c-0.1,0.6,0,1.2-0.1,1.7
		c-0.1,0.5-0.4,0.9-0.6,1.2c-0.2,0.3-0.6,0.6-1.1,0.5C114.8,17.4,115.1,15.5,115.1,13.7 M105.6,15c-0.3,1.4-0.1,3,0.7,3.6
		c0.2,0.1,0.3,0.3,0.6,0.3c0.9,0.3,1.6-0.2,2.1-0.6c0.3-0.2,0.6-0.5,1.1-0.4c0.7,0.2,0.9,0.9,1.7,1c0.4,0.1,0.7-0.1,1-0.2
		c0.4-0.3,0.7-0.6,1.3-0.7c0.3-0.1,0.6,0.1,0.8,0.2c0.4,0.2,0.8,0.6,1.4,0.7c0.3,0.1,0.6-0.1,0.8-0.2c0.4-0.2,0.8-0.6,1.3-0.7
		c0.3,0,0.5,0.1,0.7,0.2c0.4,0.2,0.7,0.6,1.2,0.7c0.9,0.2,1.8-0.6,2.4-0.9c0.3-0.1,0.6-0.1,0.9,0c0.2,0.1,0.4,0.3,0.6,0.5
		c0.4,0.3,1.1,0.5,1.8,0.3c0.2-0.1,0.4-0.1,0.6-0.2c0.2-0.1,0.7-0.4,0.6-0.7c0,0,0,0,0,0c-0.2,0-0.7,0.1-1,0.2
		c-0.9,0.2-1.6-0.5-1.8-1.1c-0.2-0.4-0.3-0.8-0.4-1.3c0-0.2-0.1-0.5-0.1-0.7c-0.1-0.5,0-1.1-0.5-1.2c-0.8-0.2-0.6,1.1-0.7,1.7
		c-0.2,1.1-0.4,1.7-1.3,2.1c-0.5,0.2-1,0.2-1.4-0.1c-0.7-0.5-0.6-1.5-0.6-2.7c0-0.5,0-1.1,0-1.6c0-0.5-0.1-1.4,0.1-1.6
		c0.2-0.4,1.1-0.2,1.5-0.3c0.1-0.1,0.3-0.2,0.2-0.4c-0.1-0.6-1.2-0.2-1.7-0.5c-0.5-0.4,0.1-2-0.5-2.2c-0.2-0.1-0.4,0-0.5,0.2
		c-0.2,0.3-0.2,0.9-0.2,1.4c0,0.2,0,0.4-0.1,0.5c0,0.1-0.2,0.2-0.3,0.3c-0.2,0.1-0.4,0-0.6,0.1c-0.4,0-0.7,0-1.1,0
		c-0.2,0-0.5,0-0.7,0c-0.9-0.2,0.1-2.5-1-2.5c-0.2,0.1-0.3,0.1-0.4,0.4c-0.2,0.5,0.1,1.4-0.1,1.9c-0.2,0.5-1.1,0.1-1.4,0.6
		c0,0.1-0.1,0.2-0.1,0.3c0.1,0.7,1.2,0.2,1.5,0.7c0.2,0.3,0.1,1.2,0.1,1.6c0,1.4,0,2.4-0.6,3.3c-0.1,0.2-0.2,0.4-0.4,0.5
		c-0.1,0.1-0.3,0.2-0.5,0.3c-0.2,0.1-0.5,0.1-0.8,0c-0.9-0.3-0.8-1.4-1-2.5c-0.1-0.5,0.1-1.4-0.4-1.4c-0.6-0.1-0.7,1.1-0.8,1.5
		c-0.2,1.1-0.5,2.2-1.6,2.4c-0.7,0.1-1-0.4-1.2-0.8c-0.1-0.2,0-0.5-0.1-0.8c-0.1-0.4,0-0.8,0-1.2c0.1-0.5-0.1-1.3-0.6-1.2
		C105.7,14,105.7,14.6,105.6,15 M89.9,7.4c0.1,0.3,0.5,0.2,0.7,0.1C91.2,7.4,92,7,92.1,7.8c0.1,1.4,0.1,2.9,0.2,4.3
		c0,0.4,0,0.9,0,1.3c0,0.6,0,1.1,0,1.7v0.5c0.1,0.6,0,1.6,0.4,1.8c0.3,0.1,0.4-0.1,0.5-0.3c0.2-0.4,0.2-0.9,0.2-1.4
		c0-0.1,0-0.3,0-0.4c0-0.5,0-1,0-1.5c0-1,0-2,0-3c0-0.5,0-1,0-1.5V8.9c0-0.3,0-0.6,0-0.9c0-0.2,0-0.4,0-0.6c0-0.2,0.1-0.3,0.3-0.4
		c0.3-0.2,1.7-0.3,2.2-0.2C96.5,6.9,97,6.9,97.3,7c1.4,0.3,2.5,1,3.3,2c0.4,0.5,0.8,1.1,1,1.8c0.1,0.4,0.2,0.8,0.3,1.3
		c0.2,1-0.1,2.3-0.3,3c-0.9,2.3-2.6,3.3-5.1,3.9c-0.4,0.1-0.8,0.1-1.3,0.1c-0.2,0-0.4,0-0.6,0H94c-0.2,0-0.5,0-0.7,0
		c-0.3,0-0.6,0-0.9-0.1C92,19,91.6,19,91.2,18.9c-0.2,0-0.5-0.1-0.7-0.1c0,0,0,0,0,0.1c0.1,0.2,0.4,0.2,0.6,0.3
		c0.5,0.2,1.1,0.3,1.8,0.5c3.1,0.7,6.5-0.2,8.3-1.5c1.3-0.9,2.3-2.1,2.7-3.9c0.1-0.4,0.2-1.3,0.2-1.8c0-0.1,0-0.3,0-0.4
		c-0.1-0.4-0.1-0.8-0.2-1.1c-0.2-0.7-0.4-1.3-0.7-1.8C101.8,7,99.5,5.7,96,5.7c-0.2,0-0.4,0-0.5,0c-0.3,0-0.7,0.1-1,0.1
		c-1.2,0.2-2.3,0.4-3.3,0.8c-0.3,0.1-0.7,0.2-1,0.4C90.1,7.1,89.9,7.2,89.9,7.4 M52.9,17c0.7,0,1.1,1.1,0.3,1.4
		c-0.5,0.1-1.3-0.2-1.2-0.7C52.1,17.3,52.5,17.2,52.9,17 M58.3,16.9c0.1,0,0.2,0,0.3,0c0.3,0.1,0.7,0.6,0.5,1
		c-0.1,0.2-0.3,0.3-0.6,0.4c-0.5,0.1-1.3-0.3-1-0.8C57.6,17.1,58,17,58.3,16.9 M39.2,15.2c-0.5,1.1,0.2,2.5,0.9,3
		c0.8,0.6,2.1,1,3.5,0.6c0.7-0.2,1.2-0.6,1.9-0.7c0.2,0,0.4,0,0.5,0.1c0.7,0.2,1.3,1,2.2,0.7c0.3-0.1,0.6-0.2,0.8-0.4
		c0.6-0.4,1.1-1,1.4-1.7c0.2-0.4,0.4-1,0.6-1.4c0.1-0.2,0.5-0.4,0.8-0.2c0.1,0.1,0.3,0.2,0.4,0.3c0.1,0.1,0.2,0.2,0.3,0.3
		c0.1,0.2,0,0.4-0.1,0.5c-0.1,0.1-0.3,0.2-0.4,0.3c-0.3,0.2-0.5,0.4-0.7,0.7c-0.4,0.6-0.4,1.2,0.2,1.5c0.9,0.6,3.2,0.7,3.5-0.5
		c0.1-0.4-0.1-0.9-0.2-1.2c-0.1-0.1-0.2-0.4-0.1-0.6c0.1-0.3,0.3-0.4,0.5-0.5c0.4-0.3,0.8-0.7,1.2-1c0.1-0.1,0.4-0.2,0.6-0.1
		c0.2,0.1,0.3,0.2,0.4,0.3c0.2,0.1,0.6,0.4,0.5,0.7c0,0.2-0.2,0.3-0.4,0.4c-0.4,0.3-1.5,1.2-0.9,1.9c0.1,0.1,0.3,0.2,0.4,0.3
		c0.3,0.2,0.6,0.3,1,0.4c1.1,0.2,2.3,0,2.5-0.9c0.2-0.8-0.9-1.5,0-2c0.1-0.1,0.3-0.1,0.4-0.2c0.2-0.1,0.4-0.2,0.7-0.2
		c0.5,0.1,0.6,0.7,0.7,1.1c0.3,0.7,0.7,1.9,1.5,2.1c0.4,0.1,0.7-0.1,0.9-0.3c0.6-0.4,0.9-1.1,1.4-1.7c0.1-0.2,0.4-0.7,0.8-0.6
		c0.6,0.1,0.7,1.4,0.9,2c0.1,0.2,0.2,0.5,0.4,0.6c0.3,0.1,0.6-0.4,0.7-0.6c0.3-0.6,0.6-2,1.3-2.2c0.3-0.1,0.5,0.1,0.6,0.3
		c0.3,0.5,0.2,1.5,0.5,2.1c0.1,0.2,0.3,0.6,0.6,0.5c0.4-0.1,0.5-0.7,0.6-1.1c0.2-0.7,0.4-1.5,1.1-1.7c0.5-0.1,0.7,0.3,0.8,0.6
		c0.3,0.7,0.4,1.8,1.1,2.1c0.4,0.1,0.8,0,1.1-0.1c0.6-0.3,1-0.9,1.8-1c0.2,0,0.4,0.1,0.6,0.1c0.4,0.2,0.7,0.5,1.1,0.7
		c1.1,0.6,2.5,0.3,3.4-0.2c0.7-0.4,1.2-1.1,1.5-1.9c0.4-1.3-0.5-2.4-1.4-2.8c-0.7-0.3-1.8-0.3-2.5,0c-0.1,0.1-0.6,0.3-0.5,0.5
		c0.1,0.1,0.3,0.1,0.4,0c0.3-0.1,0.8-0.2,1.2-0.1c1,0.2,1.8,0.9,1.5,2.1c-0.1,0.2-0.1,0.4-0.2,0.5c-0.4,0.6-1.6,1.3-2.8,1
		c-0.7-0.2-1.2-0.6-1.4-1.3c-0.1-0.5-0.1-1.3-0.1-1.9c0-0.3,0-0.6-0.3-0.5C78.3,14,78.2,15,78,15.4c-0.4,0.9-0.9,1.8-1.9,2
		c-0.5,0.1-0.7-0.4-0.9-0.7c-0.3-0.7-0.4-1.6-0.6-2.3c-0.1-0.4-0.1-0.8-0.5-0.9c-0.3-0.1-0.6,0.1-0.7,0.3c-0.4,0.5-0.6,1.1-1,1.6
		c-0.1,0.2-0.4,0.5-0.8,0.4c-0.7-0.1-0.8-1-1-1.6c-0.1-0.2-0.2-0.7-0.6-0.7c-0.6,0.1-0.9,1.4-1.1,2c-0.1,0.2-0.4,0.6-0.8,0.5
		c-0.8-0.3-0.3-2.2-1.2-2.4c-0.5-0.1-0.8,0.6-1,0.8c-0.4,0.7-0.6,1.5-1.1,2.1c-0.2,0.3-0.4,0.6-0.8,0.6c-0.4,0.1-0.6-0.4-0.7-0.6
		c-0.2-0.6-0.3-1.3-0.5-2c-0.1-0.4,0-0.8-0.4-1c-0.4-0.3-0.8,0.2-1,0.4c-0.5,0.4-1.1,0.7-1.7,1.1c-0.2,0.1-0.5,0.3-0.8,0.3
		c-0.3-0.1-0.5-0.3-0.7-0.5c-0.4-0.3-0.8-0.7-1.2-1.1c-0.2-0.2-0.4-0.6-0.8-0.6c-0.1,0-0.2,0-0.2,0.1c-0.3,0.2-0.4,0.5-0.5,0.8
		c-0.3,0.4-1.1,1.3-1.6,1.4c-0.3,0.1-0.6-0.3-0.8-0.5c-0.5-0.5-1-1-1.7-1.4c-0.3-0.1-0.8-0.4-1.1-0.1c-0.3,0.2-0.3,1-0.4,1.3
		c-0.3,0.9-0.9,2-1.6,2.6c-0.3,0.2-0.6,0.5-1.2,0.4c-0.9-0.2-1.1-1.4-1.3-2.3c-0.1-0.4-0.1-1.3-0.5-1.4c-0.3-0.1-0.4,0.2-0.4,0.5
		c0,0.3,0,0.6,0,0.8c0,0.2,0,0.3,0,0.5c-0.1,0.3-0.1,0.6-0.2,0.9c-0.3,0.7-1.4,1.5-2.6,1.3c-0.3,0-0.5,0-0.7-0.1
		c-0.7-0.3-1-0.8-1.2-1.6c0-0.3,0-0.5,0.1-0.7c0.3-0.9,1.1-1.1,2.1-1.2c0.3-0.1,1.4,0.1,1.5-0.1c0.1-0.2-0.3-0.4-0.4-0.4
		c-0.5-0.3-1.4-0.4-2.2-0.3C40.4,13.8,39.5,14.3,39.2,15.2 M23,18.9c-0.1,0.3,0,0.7,0.2,0.8c0.2,0.2,0.6,0.1,0.8,0
		c0.3-0.3,0.4-1.1,0.5-1.6c0.4-1.8,0.8-4.6,1.1-6.4c0.1-0.5,0.2-1.6,0.8-1.6c0.6,0,0.7,1.5,0.8,2.1c0.3,1.3,0.5,2.7,0.8,4
		c0.2,0.7,0.2,1.5,0.5,2c0.2,0.4,0.9,0.9,1.6,0.6c0.7-0.3,1-1.3,1.3-2.1c0.7-1.8,1.4-3.7,2.1-5.5c0.2-0.6,0.5-1.3,0.7-1.9
		c0.1-0.2,0.2-0.6,0.6-0.5c0.8,0.1,0.4,1.9,0.6,2.7c0.1,2.4,0.2,4.2,0.3,6.5c0.1,1-0.3,2.1,0.9,2.1c0.1,0,0.2,0,0.3,0
		c0.6-0.2,0.6-1.1,0.5-1.8c0-0.4,0-0.7-0.1-1.1c0-0.3,0-0.5,0-0.8c-0.2-2.8-0.3-4.9-0.5-7.7c-0.1-0.7,0-2.1-0.3-2.5
		C36.1,6.1,35.7,6,35.2,6c-0.1,0-0.2,0-0.3,0c-0.3,0-0.5,0-0.7,0.2c-0.4,0.3-0.7,1.5-0.9,2c-0.6,1.8-1.3,3.6-1.9,5.4
		c-0.3,0.7-0.5,1.4-0.8,2.1c-0.1,0.3-0.3,0.7-0.6,0.8c-0.3,0.1-0.5-0.2-0.5-0.4c-0.2-0.6-0.3-1.4-0.4-2.1c-0.3-1.8-0.6-3.5-0.9-5.3
		C28,8.1,28,7,27.6,6.7c-0.3-0.2-1.1-0.3-1.6-0.2c-0.7,0.2-0.8,1.6-1,2.3c-0.5,2.4-1.1,5.7-1.6,8.1C23.3,17.6,23.1,18.3,23,18.9"/>
</g>
</svg>
