<svg version="1.2" xmlns="http://www.w3.org/2000/svg" viewBox="0 0 1500 500" width="300" height="100">
	<title>Comprarla logo</title>
	<style>
		.s0 { fill: #ffffff } 
	</style>
	<path id="Comprarla" class="s0" aria-label="Comprarla"  d="m453.4 286.8c0 29.2 25 44.8 53.8 44.2 41.8-0.6 90.6-25 119-47.4 1.8-2.8-0.8-12-3.8-9.2-28.4 22.4-77.6 46.6-118.6 46.8-12.2 0-31.8-2.4-39.6-15.2-0.6-1.4-1-2.8-1.4-4.4-12-56.6 87.6-145 124.8-137.6 3.4 0.6 5.8 2.4 7.4 4.6 2.4 6.4 1.4 15.2 0.8 20.8-1.4 9-5 18.8-7.2 25.8-0.8 2 2.6 10.4 6 10.4 3.6-10.2 11.4-37 5.8-55.4-0.6-1.8-1.2-3.4-2.2-5-2.2-5-6.4-8.8-13.2-10.2-40.4-8-132.2 72.4-131.6 131.8zm169.2-7.4c1 4.2 6.2 12.8 11.6 12.8 6 0 12.2-7.6 13.6-20 6.8 1.6 18 1.4 25 0.2 3.4-0.4-0.8-7-3.4-7.2-10 1-17 0.8-22.2-0.2-1.2-4-4.2-9.4-8.6-11.6-2.8-1.2-5 0.4-5.8 2.2-0.4 1-0.6 2.2-0.2 3.6-6.8 3.8-11.6 12.6-10 20.2zm8.4 4.8c-1.4 0-2.4-1-2.4-2.8 0-4.8 3.4-11.6 8.6-14.6 1.4 1.4 2.4 2.4 3.4 3-2.2 8.6-6.4 14.4-9.6 14.4zm10.2-21c-1-0.4-1.6-0.6-2.2-1 0.4-1.6 1-1.4 1-1.4 0.6 0.4 0.8 1.2 1.2 2.4zm68.6 17.6c0.8 4 4.4 10.8 9.6 10.8 9 0 20-9.2 24.4-13.2 1.8-1.6-1.4-9.4-3.8-7.6-3.2 2.6-16.8 13-24.2 12.8-0.2-2.8-0.4-7-1-10.8-0.2-2-2.4-10.2-6.4-10.2-3.6 0-6.4 2.2-9 4.4 0.2-1.8 0-3.8-0.4-5.8-0.6-2.8-3.8-8.2-7.4-8.2-3.4 0-8.6 4.2-11.8 7.6-0.2-0.8-1.8-3-2.4-3.6-1-0.6-2.2-0.6-2.8 0.4-3 4.8-10.8 22.2-12.6 27.4-0.4 1.8 4 8.8 5.8 6.2 4.4-5.6 17.8-26.8 24.8-30-0.8 5.4-6 16.2-6 21 0 3.8 4.4 7 5.8 5.4 2.4-2.8 11.4-12.6 16.4-16.4 0.4 3.2 0.2 6.2 1 9.8zm5.6 61.4c-0.6 2 5.2 9 6.6 6 6.6-15.8 15.6-41.8 27-61.2 1 1.2 2.4 5 4.4 4.6 3.6-0.2 7.2-1.8 10.4-4.2l2.2-1.8 5.4-2.2c9.2-3.8 20.8-7.2 31-8 3.6 0-1-6.8-3.6-6.8-7.8 0.6-16.4 2.6-24 4.8 1-2.6 1.2-5.4 1-8-0.6-3.2-3.8-9.6-8-9.6-4.2 0-11 6-16.6 12.8 3.6-8.8 4.2-10.4 4.4-13-0.4-2.2-3-5.4-5-7.2-1.2-0.2-1.8 0.6-2.2 1.6-6.2 16.4-27.8 70.6-33 92.2zm36.2-59.8c5.2-8.2 11.2-14.8 17.4-18.6-0.8 5.8-4.4 10.2-8.4 14.4l-0.6 0.2zm38.6 9.2c-0.6 2 5.8 8.6 7 5.4 4.2-10.6 15.2-27.6 19.6-32 4 6.2 8.2 10 12.8 10 6 0 12.8-3.4 16.4-5.4 3-1.4-0.8-8.2-2.8-7.4-4.6 2.2-10.8 4.8-16.6 4.8-3.2 0-5.4-1.8-6.2-5.6-0.2-1.6-3-5.8-5-5.4l-1.8 1.4 0.4-1c0.8-1.6-3-5.4-4.4-6.4-0.8-0.6-2.2-0.4-2.6 0.6-5 11-13 28.6-16.8 41zm42.6-6.2c0.8 4 5.8 8 9.8 8 5.4 0 12-6.8 16.2-10.8 0.2 1 0.6 2 1.2 2.8 2 4.6 6 7.8 11.6 7.8 7.6 0 23.2-11.8 28.8-18.8 1.4-1.8-1.2-8.8-3.4-6.8-6.2 5-22.6 18-29.8 18-0.8 0-1.2 0-1.6-0.4-1-5.2 4.6-15.2 8.4-22 2-1.6-4.2-10.2-6.2-7.6l-2.8 4c-2-2.2-5.8-4.2-8.8-4.2-5.8 0-10.4 3.8-14 7.8-3.6 4.2-11.6 15-9.4 22.2zm29.8-21.8c-10.8 13-18.8 21.6-23.2 22.8 0.8-8.6 13-24 19.8-24 1.2 0 2.4 0.6 3.4 1.2zm24.6 28c-0.6 2 5.8 8.6 7 5.4 4.2-10.6 15.2-27.6 19.6-32 4 6.2 8.2 10 12.8 10 6 0 12.8-3.4 16.4-5.4 3-1.4-0.8-8.2-2.8-7.4-4.6 2.2-10.8 4.8-16.6 4.8-3.2 0-5.4-1.8-6.2-5.6-0.2-1.6-3-5.8-5-5.4l-1.8 1.4 0.4-1c0.8-1.6-3-5.4-4.4-6.4-0.8-0.6-2.2-0.4-2.6 0.6-5 11-13 28.6-16.8 41zm48.2-2.6c1.4 5 6.4 10.6 12.4 10.6 7 0.2 16.2-4.6 23.8-9.6 10.6-7 17.8-14.6 22.8-19.6 1.6-1.6-1.6-9-3.4-7.4-9.8 8.2-24.8 21.8-40.8 27.4-12.4 4.2-9.2-6.4-6.4-16.4 11.8-9.6 36.8-40.8 45.6-67 1.8-5.8 3-11.2 2.2-13.6-0.4-2-3.8-6.6-6.2-6.6-5.2-0.2-11.6 6.4-17.6 14.8-12.2 16.8-27.6 48.2-32.2 70.2-1 6.2-1.8 12.6-0.2 17.2zm47.8-90.4c-5.2 17-24 47.8-34.6 59.6 6.2-16.2 16.4-37 26.2-50 3-4.2 5.8-7.4 8.4-9.6zm-2.8 86.8c0.8 4 5.8 8 9.8 8 5.4 0 12-6.8 16.2-10.8 0.2 1 0.6 2 1.2 2.8 2 4.6 6 7.8 11.6 7.8 7.6 0 23.2-11.8 28.8-18.8 1.4-1.8-1.2-8.8-3.4-6.8-6.2 5-22.6 18-29.8 18-0.8 0-1.2 0-1.6-0.4-1-5.2 4.6-15.2 8.4-22 2-1.6-4.2-10.2-6.2-7.6l-2.8 4c-2-2.2-5.8-4.2-8.8-4.2-5.8 0-10.4 3.8-14 7.8-3.6 4.2-11.6 15-9.4 22.2zm29.8-21.8c-10.8 13-18.8 21.6-23.2 22.8 0.8-8.6 13-24 19.8-24 1.2 0 2.4 0.6 3.4 1.2z"/>
</svg>